<?xml version="1.0" encoding="utf-8"?>
<!-- Generator: Adobe Illustrator 16.0.0, SVG Export Plug-In . SVG Version: 6.00 Build 0)  -->
<!DOCTYPE svg PUBLIC "-//W3C//DTD SVG 1.1//EN" "http://www.w3.org/Graphics/SVG/1.1/DTD/svg11.dtd">
<svg version="1.1" id="Layer_1" xmlns="http://www.w3.org/2000/svg" xmlns:xlink="http://www.w3.org/1999/xlink" x="0px" y="0px"
	 width="25.001px" height="220.406px" viewBox="0 0 25.001 220.406" enable-background="new 0 0 25.001 220.406"
	 xml:space="preserve">
<g>
	<path opacity="0.15" fill="#5B5E85" enable-background="new    " d="M1.825,102.478c0.193,0.152,0.461,0.181,0.686,0.073
		l2.584-1.243l2.488,1.425c0.213,0.123,0.473,0.115,0.684-0.023c0.207-0.139,0.314-0.383,0.281-0.626l-0.383-2.841l2.123-1.928
		c0.184-0.167,0.256-0.422,0.188-0.659c-0.066-0.238-0.264-0.417-0.508-0.46l-2.822-0.514l-1.174-2.615
		c-0.104-0.227-0.322-0.375-0.568-0.384c-0.123-0.004-0.24,0.027-0.344,0.084c-0.104,0.059-0.191,0.148-0.252,0.257l-1.361,2.524
		l-2.852,0.311c-0.09,0.009-0.172,0.037-0.258,0.085c-0.309,0.187-0.434,0.574-0.254,0.889c0.055,0.099,0.133,0.177,0.223,0.233
		l1.871,1.959l-0.584,2.808C1.538,102.074,1.631,102.324,1.825,102.478z"/>
	<path opacity="0.3" fill="#5B5E85" enable-background="new    " d="M13.043,91.661c0.1,0.078,0.234,0.093,0.35,0.038l1.32-0.635
		l1.271,0.728c0.109,0.063,0.242,0.059,0.352-0.012c0.104-0.071,0.16-0.196,0.143-0.32l-0.193-1.452l1.084-0.985
		c0.094-0.085,0.131-0.216,0.096-0.337c-0.033-0.122-0.135-0.213-0.26-0.235l-1.441-0.262l-0.6-1.336
		c-0.055-0.116-0.166-0.191-0.291-0.196c-0.064-0.002-0.125,0.014-0.176,0.042c-0.055,0.031-0.1,0.076-0.131,0.132l-0.693,1.29
		l-1.457,0.159c-0.047,0.004-0.088,0.019-0.133,0.043c-0.156,0.096-0.221,0.293-0.129,0.455c0.027,0.05,0.066,0.09,0.111,0.119
		l0.957,1.001l-0.299,1.435C12.897,91.455,12.946,91.584,13.043,91.661z"/>
	<path opacity="0.45" fill="#5B5E85" enable-background="new    " d="M22.159,83.718c0.063,0.05,0.15,0.06,0.225,0.024l0.846-0.407
		l0.814,0.466c0.068,0.041,0.154,0.038,0.225-0.008c0.066-0.045,0.104-0.125,0.092-0.205l-0.125-0.93l0.695-0.631
		c0.059-0.055,0.084-0.138,0.063-0.216c-0.021-0.078-0.088-0.137-0.168-0.151l-0.924-0.168l-0.385-0.856
		c-0.033-0.074-0.104-0.123-0.186-0.126c-0.041-0.001-0.08,0.009-0.113,0.027c-0.033,0.02-0.063,0.048-0.082,0.084l-0.445,0.826
		l-0.934,0.102c-0.031,0.003-0.059,0.013-0.084,0.029c-0.102,0.061-0.143,0.188-0.084,0.291c0.018,0.032,0.043,0.058,0.072,0.076
		l0.611,0.642l-0.189,0.919C22.065,83.586,22.096,83.668,22.159,83.718z"/>
	<path opacity="0.15" fill="#5B5E85" enable-background="new    " d="M1.825,65.743c0.193,0.152,0.461,0.181,0.686,0.073
		l2.584-1.243l2.488,1.425c0.213,0.123,0.473,0.115,0.684-0.024c0.207-0.139,0.314-0.382,0.281-0.626l-0.383-2.841l2.123-1.928
		c0.184-0.167,0.256-0.422,0.188-0.659c-0.066-0.238-0.264-0.417-0.508-0.46l-2.822-0.514l-1.174-2.615
		c-0.104-0.227-0.322-0.375-0.568-0.384c-0.123-0.004-0.24,0.027-0.344,0.084c-0.104,0.059-0.191,0.148-0.252,0.257l-1.361,2.524
		l-2.852,0.311c-0.09,0.009-0.172,0.037-0.258,0.085c-0.309,0.187-0.434,0.574-0.254,0.889c0.055,0.099,0.133,0.177,0.223,0.233
		l1.871,1.959l-0.584,2.808C1.538,65.34,1.631,65.59,1.825,65.743z"/>
	<path opacity="0.3" fill="#5B5E85" enable-background="new    " d="M13.043,54.926c0.1,0.078,0.234,0.093,0.35,0.038l1.32-0.635
		l1.271,0.728c0.109,0.063,0.242,0.059,0.352-0.012c0.104-0.071,0.16-0.196,0.143-0.32l-0.193-1.452l1.084-0.985
		c0.094-0.085,0.131-0.216,0.096-0.337c-0.033-0.122-0.135-0.213-0.26-0.235l-1.441-0.262l-0.6-1.336
		c-0.055-0.116-0.166-0.191-0.291-0.196c-0.064-0.002-0.125,0.014-0.176,0.042c-0.055,0.031-0.1,0.076-0.131,0.132l-0.693,1.29
		l-1.457,0.159c-0.047,0.004-0.088,0.019-0.133,0.043c-0.156,0.096-0.221,0.293-0.129,0.455c0.027,0.05,0.066,0.09,0.111,0.119
		l0.957,1.001l-0.299,1.435C12.897,54.72,12.946,54.85,13.043,54.926z"/>
	<path opacity="0.45" fill="#5B5E85" enable-background="new    " d="M22.159,46.983c0.063,0.05,0.15,0.06,0.225,0.024l0.846-0.407
		l0.814,0.466c0.068,0.041,0.154,0.038,0.225-0.008c0.066-0.045,0.104-0.125,0.092-0.205l-0.125-0.93l0.695-0.631
		c0.059-0.055,0.084-0.138,0.063-0.216c-0.021-0.078-0.088-0.137-0.168-0.151l-0.924-0.168l-0.385-0.856
		c-0.033-0.074-0.104-0.123-0.186-0.126c-0.041-0.001-0.08,0.009-0.113,0.027c-0.033,0.02-0.063,0.048-0.082,0.084l-0.445,0.826
		l-0.934,0.102c-0.031,0.003-0.059,0.013-0.084,0.029c-0.102,0.061-0.143,0.188-0.084,0.291c0.018,0.032,0.043,0.058,0.072,0.076
		l0.611,0.642l-0.189,0.919C22.065,46.852,22.096,46.934,22.159,46.983z"/>
	<path opacity="0.15" fill="#5B5E85" enable-background="new    " d="M1.825,84.11c0.193,0.152,0.461,0.181,0.686,0.073l2.584-1.243
		l2.488,1.425c0.213,0.123,0.473,0.115,0.684-0.024c0.207-0.139,0.314-0.382,0.281-0.626l-0.383-2.841l2.123-1.928
		c0.184-0.167,0.256-0.422,0.188-0.659c-0.066-0.238-0.264-0.417-0.508-0.46l-2.822-0.514l-1.174-2.615
		c-0.104-0.227-0.322-0.375-0.568-0.384c-0.123-0.004-0.24,0.027-0.344,0.084c-0.104,0.059-0.191,0.148-0.252,0.257L3.446,77.18
		l-2.852,0.311c-0.09,0.009-0.172,0.037-0.258,0.085c-0.309,0.187-0.434,0.574-0.254,0.889c0.055,0.099,0.133,0.177,0.223,0.233
		l1.871,1.959l-0.584,2.808C1.538,83.708,1.631,83.958,1.825,84.11z"/>
	<path opacity="0.3" fill="#5B5E85" enable-background="new    " d="M13.043,73.293c0.1,0.078,0.234,0.093,0.35,0.038l1.32-0.635
		l1.271,0.728c0.109,0.063,0.242,0.059,0.352-0.012c0.104-0.071,0.16-0.196,0.143-0.32l-0.193-1.452l1.084-0.985
		c0.094-0.085,0.131-0.216,0.096-0.337c-0.033-0.122-0.135-0.213-0.26-0.235l-1.441-0.262l-0.6-1.336
		c-0.055-0.116-0.166-0.191-0.291-0.196c-0.064-0.002-0.125,0.014-0.176,0.042c-0.055,0.031-0.1,0.076-0.131,0.132l-0.693,1.29
		l-1.457,0.159c-0.047,0.004-0.088,0.019-0.133,0.043c-0.156,0.096-0.221,0.293-0.129,0.455c0.027,0.05,0.066,0.09,0.111,0.119
		l0.957,1.001l-0.299,1.435C12.897,73.087,12.946,73.217,13.043,73.293z"/>
	<path opacity="0.45" fill="#5B5E85" enable-background="new    " d="M22.159,65.351c0.063,0.05,0.15,0.06,0.225,0.024l0.846-0.407
		l0.814,0.466c0.068,0.041,0.154,0.038,0.225-0.008c0.066-0.045,0.104-0.125,0.092-0.205l-0.125-0.93l0.695-0.631
		c0.059-0.055,0.084-0.138,0.063-0.216c-0.021-0.078-0.088-0.137-0.168-0.151l-0.924-0.168l-0.385-0.856
		c-0.033-0.074-0.104-0.123-0.186-0.126c-0.041-0.001-0.08,0.009-0.113,0.027c-0.033,0.02-0.063,0.048-0.082,0.084L22.69,63.08
		l-0.934,0.102c-0.031,0.003-0.059,0.013-0.084,0.029c-0.102,0.061-0.143,0.188-0.084,0.291c0.018,0.032,0.043,0.058,0.072,0.076
		l0.611,0.642l-0.189,0.919C22.065,65.219,22.096,65.301,22.159,65.351z"/>
	<path opacity="0.15" fill="#5B5E85" enable-background="new    " d="M1.825,47.376c0.193,0.152,0.461,0.181,0.686,0.073
		l2.584-1.243l2.488,1.425c0.213,0.123,0.473,0.115,0.684-0.024c0.207-0.139,0.314-0.382,0.281-0.626L8.165,44.14l2.123-1.928
		c0.184-0.167,0.256-0.422,0.188-0.659c-0.066-0.238-0.264-0.417-0.508-0.46l-2.822-0.514l-1.174-2.615
		c-0.104-0.227-0.322-0.375-0.568-0.384c-0.123-0.004-0.24,0.027-0.344,0.084c-0.104,0.059-0.191,0.148-0.252,0.257l-1.361,2.524
		l-2.852,0.311c-0.09,0.009-0.172,0.037-0.258,0.085c-0.309,0.187-0.434,0.574-0.254,0.889c0.055,0.099,0.133,0.177,0.223,0.233
		l1.871,1.959L1.592,46.73C1.538,46.973,1.631,47.223,1.825,47.376z"/>
	<path opacity="0.3" fill="#5B5E85" enable-background="new    " d="M13.043,36.559c0.1,0.078,0.234,0.093,0.35,0.038l1.32-0.635
		l1.271,0.728c0.109,0.063,0.242,0.059,0.352-0.012c0.104-0.071,0.16-0.196,0.143-0.32l-0.193-1.452l1.084-0.985
		c0.094-0.085,0.131-0.216,0.096-0.337c-0.033-0.122-0.135-0.213-0.26-0.235l-1.441-0.262l-0.6-1.336
		c-0.055-0.116-0.166-0.191-0.291-0.196c-0.064-0.002-0.125,0.014-0.176,0.042c-0.055,0.031-0.1,0.076-0.131,0.132l-0.693,1.29
		l-1.457,0.159c-0.047,0.004-0.088,0.019-0.133,0.043c-0.156,0.096-0.221,0.293-0.129,0.455c0.027,0.05,0.066,0.09,0.111,0.119
		l0.957,1.001l-0.299,1.435C12.897,36.353,12.946,36.482,13.043,36.559z"/>
	<path opacity="0.45" fill="#5B5E85" enable-background="new    " d="M22.159,28.616c0.063,0.05,0.15,0.06,0.225,0.024l0.846-0.407
		l0.814,0.466c0.068,0.041,0.154,0.038,0.225-0.008c0.066-0.045,0.104-0.125,0.092-0.205l-0.125-0.93l0.695-0.631
		c0.059-0.055,0.084-0.138,0.063-0.216c-0.021-0.078-0.088-0.137-0.168-0.151l-0.924-0.168l-0.385-0.856
		c-0.033-0.074-0.104-0.123-0.186-0.126c-0.041-0.001-0.08,0.009-0.113,0.027c-0.033,0.02-0.063,0.048-0.082,0.084l-0.445,0.826
		l-0.934,0.102c-0.031,0.003-0.059,0.013-0.084,0.029c-0.102,0.061-0.143,0.188-0.084,0.291c0.018,0.032,0.043,0.058,0.072,0.076
		l0.611,0.642l-0.189,0.919C22.065,28.484,22.096,28.566,22.159,28.616z"/>
	<path opacity="0.15" fill="#5B5E85" enable-background="new    " d="M1.825,10.642c0.193,0.152,0.461,0.181,0.686,0.073
		l2.584-1.243l2.488,1.425c0.213,0.123,0.473,0.115,0.684-0.024c0.207-0.139,0.314-0.382,0.281-0.626L8.165,7.406l2.123-1.928
		c0.184-0.167,0.256-0.422,0.188-0.659c-0.066-0.238-0.264-0.417-0.508-0.46L7.145,3.845L5.971,1.23
		C5.868,1.003,5.649,0.855,5.403,0.846C5.28,0.842,5.163,0.873,5.059,0.93C4.956,0.989,4.868,1.078,4.807,1.187L3.446,3.711
		L0.594,4.022c-0.09,0.009-0.172,0.037-0.258,0.085C0.028,4.294-0.097,4.681,0.083,4.996c0.055,0.099,0.133,0.177,0.223,0.233
		l1.871,1.959L1.592,9.996C1.538,10.239,1.631,10.489,1.825,10.642z"/>
	<path opacity="0.15" fill="#5B5E85" enable-background="new    " d="M1.825,29.009c0.193,0.152,0.461,0.181,0.686,0.073
		l2.584-1.243l2.488,1.425c0.213,0.123,0.473,0.115,0.684-0.024c0.207-0.139,0.314-0.382,0.281-0.626l-0.383-2.841l2.123-1.928
		c0.184-0.167,0.256-0.422,0.188-0.659c-0.066-0.238-0.264-0.417-0.508-0.46l-2.822-0.514l-1.174-2.615
		c-0.104-0.227-0.322-0.375-0.568-0.384c-0.123-0.004-0.24,0.027-0.344,0.084c-0.104,0.059-0.191,0.148-0.252,0.257l-1.361,2.524
		l-2.852,0.311c-0.09,0.009-0.172,0.037-0.258,0.085c-0.309,0.187-0.434,0.574-0.254,0.889c0.055,0.099,0.133,0.177,0.223,0.233
		l1.871,1.959l-0.584,2.808C1.538,28.606,1.631,28.856,1.825,29.009z"/>
	<path opacity="0.3" fill="#5B5E85" enable-background="new    " d="M13.043,18.192c0.1,0.078,0.234,0.093,0.35,0.038l1.32-0.635
		l1.271,0.728c0.109,0.063,0.242,0.059,0.352-0.012c0.104-0.071,0.16-0.196,0.143-0.32l-0.193-1.452l1.084-0.985
		c0.094-0.085,0.131-0.216,0.096-0.337c-0.033-0.122-0.135-0.213-0.26-0.235l-1.441-0.262l-0.6-1.336
		c-0.055-0.116-0.166-0.191-0.291-0.196c-0.064-0.002-0.125,0.014-0.176,0.042c-0.055,0.031-0.1,0.076-0.131,0.132l-0.693,1.29
		l-1.457,0.159c-0.047,0.004-0.088,0.019-0.133,0.043c-0.156,0.096-0.221,0.293-0.129,0.455c0.027,0.05,0.066,0.09,0.111,0.119
		l0.957,1.001l-0.299,1.435C12.897,17.986,12.946,18.115,13.043,18.192z"/>
	<path opacity="0.45" fill="#5B5E85" enable-background="new    " d="M22.159,10.249c0.063,0.05,0.15,0.06,0.225,0.024l0.846-0.407
		l0.814,0.466c0.068,0.041,0.154,0.038,0.225-0.008c0.066-0.045,0.104-0.125,0.092-0.205l-0.125-0.93l0.695-0.631
		c0.059-0.055,0.084-0.138,0.063-0.216c-0.021-0.078-0.088-0.137-0.168-0.151l-0.924-0.168l-0.385-0.856
		c-0.033-0.074-0.104-0.123-0.186-0.126C23.29,7.04,23.25,7.05,23.217,7.068c-0.033,0.02-0.063,0.048-0.082,0.084L22.69,7.978
		L21.756,8.08c-0.031,0.003-0.059,0.013-0.084,0.029C21.571,8.17,21.53,8.297,21.588,8.4c0.018,0.032,0.043,0.058,0.072,0.076
		l0.611,0.642l-0.189,0.919C22.065,10.117,22.096,10.199,22.159,10.249z"/>
	<path opacity="0.15" fill="#5B5E85" enable-background="new    " d="M1.825,212.681c0.193,0.152,0.461,0.181,0.686,0.073
		l2.584-1.243l2.488,1.425c0.213,0.123,0.473,0.115,0.684-0.023c0.207-0.139,0.314-0.383,0.281-0.626l-0.383-2.841l2.123-1.928
		c0.184-0.168,0.256-0.423,0.188-0.66c-0.066-0.237-0.264-0.416-0.508-0.459l-2.822-0.515l-1.174-2.614
		c-0.104-0.228-0.322-0.375-0.568-0.385c-0.123-0.004-0.24,0.027-0.344,0.084c-0.104,0.059-0.191,0.148-0.252,0.258l-1.361,2.523
		l-2.852,0.311c-0.09,0.01-0.172,0.037-0.258,0.086c-0.309,0.187-0.434,0.573-0.254,0.889c0.055,0.099,0.133,0.177,0.223,0.232
		l1.871,1.959l-0.584,2.809C1.538,212.277,1.631,212.527,1.825,212.681z"/>
	<path opacity="0.3" fill="#5B5E85" enable-background="new    " d="M13.043,201.863c0.1,0.078,0.234,0.094,0.35,0.039l1.32-0.635
		l1.271,0.728c0.109,0.063,0.242,0.059,0.352-0.013c0.104-0.07,0.16-0.195,0.143-0.319l-0.193-1.452l1.084-0.984
		c0.094-0.086,0.131-0.217,0.096-0.338c-0.033-0.121-0.135-0.213-0.26-0.234l-1.441-0.262l-0.6-1.337
		c-0.055-0.116-0.166-0.19-0.291-0.196c-0.064-0.002-0.125,0.015-0.176,0.043c-0.055,0.03-0.1,0.076-0.131,0.131l-0.693,1.291
		l-1.457,0.158c-0.047,0.004-0.088,0.02-0.133,0.043c-0.156,0.097-0.221,0.293-0.129,0.455c0.027,0.051,0.066,0.09,0.111,0.119
		l0.957,1.002l-0.299,1.435C12.897,201.658,12.946,201.787,13.043,201.863z"/>
	<path opacity="0.45" fill="#5B5E85" enable-background="new    " d="M22.159,193.921c0.063,0.05,0.15,0.06,0.225,0.024l0.846-0.407
		l0.814,0.466c0.068,0.041,0.154,0.038,0.225-0.008c0.066-0.045,0.104-0.125,0.092-0.205l-0.125-0.93l0.695-0.631
		c0.059-0.056,0.084-0.139,0.063-0.217s-0.088-0.137-0.168-0.15l-0.924-0.168l-0.385-0.856c-0.033-0.074-0.104-0.123-0.186-0.126
		c-0.041-0.001-0.08,0.009-0.113,0.027c-0.033,0.02-0.063,0.048-0.082,0.084l-0.445,0.826l-0.934,0.102
		c-0.031,0.003-0.059,0.013-0.084,0.029c-0.102,0.061-0.143,0.188-0.084,0.291c0.018,0.031,0.043,0.058,0.072,0.076l0.611,0.642
		l-0.189,0.919C22.065,193.789,22.096,193.871,22.159,193.921z"/>
	<path opacity="0.15" fill="#5B5E85" enable-background="new    " d="M1.825,175.946c0.193,0.152,0.461,0.181,0.686,0.073
		l2.584-1.243l2.488,1.425c0.213,0.123,0.473,0.115,0.684-0.023c0.207-0.139,0.314-0.383,0.281-0.626l-0.383-2.841l2.123-1.928
		c0.184-0.168,0.256-0.423,0.188-0.66c-0.066-0.237-0.264-0.416-0.508-0.459l-2.822-0.515l-1.174-2.614
		c-0.104-0.228-0.322-0.375-0.568-0.385c-0.123-0.004-0.24,0.027-0.344,0.084c-0.104,0.059-0.191,0.148-0.252,0.258l-1.361,2.523
		l-2.852,0.311c-0.09,0.01-0.172,0.037-0.258,0.086c-0.309,0.187-0.434,0.573-0.254,0.889c0.055,0.099,0.133,0.177,0.223,0.232
		l1.871,1.959l-0.584,2.809C1.538,175.543,1.631,175.793,1.825,175.946z"/>
	<path opacity="0.3" fill="#5B5E85" enable-background="new    " d="M13.043,165.129c0.1,0.078,0.234,0.094,0.35,0.039l1.32-0.635
		l1.271,0.728c0.109,0.063,0.242,0.059,0.352-0.013c0.104-0.07,0.16-0.195,0.143-0.319l-0.193-1.452l1.084-0.984
		c0.094-0.086,0.131-0.217,0.096-0.338c-0.033-0.121-0.135-0.213-0.26-0.234l-1.441-0.262l-0.6-1.337
		c-0.055-0.116-0.166-0.19-0.291-0.196c-0.064-0.002-0.125,0.015-0.176,0.043c-0.055,0.03-0.1,0.076-0.131,0.131l-0.693,1.291
		l-1.457,0.158c-0.047,0.004-0.088,0.02-0.133,0.043c-0.156,0.097-0.221,0.293-0.129,0.455c0.027,0.051,0.066,0.09,0.111,0.119
		l0.957,1.002l-0.299,1.435C12.897,164.924,12.946,165.053,13.043,165.129z"/>
	<path opacity="0.45" fill="#5B5E85" enable-background="new    " d="M22.159,157.187c0.063,0.05,0.15,0.06,0.225,0.024l0.846-0.407
		l0.814,0.466c0.068,0.041,0.154,0.038,0.225-0.008c0.066-0.045,0.104-0.125,0.092-0.205l-0.125-0.93l0.695-0.631
		c0.059-0.056,0.084-0.139,0.063-0.217s-0.088-0.137-0.168-0.15l-0.924-0.168l-0.385-0.856c-0.033-0.074-0.104-0.123-0.186-0.126
		c-0.041-0.001-0.08,0.009-0.113,0.027c-0.033,0.02-0.063,0.048-0.082,0.084l-0.445,0.826l-0.934,0.102
		c-0.031,0.003-0.059,0.013-0.084,0.029c-0.102,0.061-0.143,0.188-0.084,0.291c0.018,0.031,0.043,0.058,0.072,0.076l0.611,0.642
		l-0.189,0.919C22.065,157.055,22.096,157.137,22.159,157.187z"/>
	<path opacity="0.15" fill="#5B5E85" enable-background="new    " d="M1.825,194.313c0.193,0.152,0.461,0.181,0.686,0.073
		l2.584-1.243l2.488,1.425c0.213,0.123,0.473,0.115,0.684-0.023c0.207-0.139,0.314-0.383,0.281-0.626l-0.383-2.841l2.123-1.928
		c0.184-0.168,0.256-0.423,0.188-0.66c-0.066-0.237-0.264-0.416-0.508-0.459l-2.822-0.515l-1.174-2.614
		c-0.104-0.228-0.322-0.375-0.568-0.385c-0.123-0.004-0.24,0.027-0.344,0.084c-0.104,0.059-0.191,0.148-0.252,0.258l-1.361,2.523
		l-2.852,0.311c-0.09,0.01-0.172,0.037-0.258,0.086c-0.309,0.187-0.434,0.573-0.254,0.889c0.055,0.099,0.133,0.177,0.223,0.232
		l1.871,1.959l-0.584,2.809C1.538,193.91,1.631,194.16,1.825,194.313z"/>
	<path opacity="0.3" fill="#5B5E85" enable-background="new    " d="M13.043,183.496c0.1,0.078,0.234,0.094,0.35,0.039l1.32-0.635
		l1.271,0.728c0.109,0.063,0.242,0.059,0.352-0.013c0.104-0.07,0.16-0.195,0.143-0.319l-0.193-1.452l1.084-0.984
		c0.094-0.086,0.131-0.217,0.096-0.338c-0.033-0.121-0.135-0.213-0.26-0.234l-1.441-0.262l-0.6-1.337
		c-0.055-0.116-0.166-0.19-0.291-0.196c-0.064-0.002-0.125,0.015-0.176,0.043c-0.055,0.03-0.1,0.076-0.131,0.131l-0.693,1.291
		l-1.457,0.158c-0.047,0.004-0.088,0.02-0.133,0.043c-0.156,0.097-0.221,0.293-0.129,0.455c0.027,0.051,0.066,0.09,0.111,0.119
		l0.957,1.002l-0.299,1.435C12.897,183.291,12.946,183.42,13.043,183.496z"/>
	<path opacity="0.45" fill="#5B5E85" enable-background="new    " d="M22.159,175.554c0.063,0.05,0.15,0.06,0.225,0.024l0.846-0.407
		l0.814,0.466c0.068,0.041,0.154,0.038,0.225-0.008c0.066-0.045,0.104-0.125,0.092-0.205l-0.125-0.93l0.695-0.631
		c0.059-0.056,0.084-0.139,0.063-0.217s-0.088-0.137-0.168-0.15l-0.924-0.168l-0.385-0.856c-0.033-0.074-0.104-0.123-0.186-0.126
		c-0.041-0.001-0.08,0.009-0.113,0.027c-0.033,0.02-0.063,0.048-0.082,0.084l-0.445,0.826l-0.934,0.102
		c-0.031,0.003-0.059,0.013-0.084,0.029c-0.102,0.061-0.143,0.188-0.084,0.291c0.018,0.031,0.043,0.058,0.072,0.076l0.611,0.642
		l-0.189,0.919C22.065,175.422,22.096,175.504,22.159,175.554z"/>
	<path opacity="0.15" fill="#5B5E85" enable-background="new    " d="M1.825,157.579c0.193,0.152,0.461,0.181,0.686,0.073
		l2.584-1.243l2.488,1.425c0.213,0.123,0.473,0.115,0.684-0.023c0.207-0.139,0.314-0.383,0.281-0.626l-0.383-2.841l2.123-1.928
		c0.184-0.168,0.256-0.423,0.188-0.66c-0.066-0.237-0.264-0.416-0.508-0.459l-2.822-0.515l-1.174-2.614
		c-0.104-0.228-0.322-0.375-0.568-0.385c-0.123-0.004-0.24,0.027-0.344,0.084c-0.104,0.059-0.191,0.148-0.252,0.258l-1.361,2.523
		l-2.852,0.311c-0.09,0.01-0.172,0.037-0.258,0.086c-0.309,0.187-0.434,0.573-0.254,0.889c0.055,0.099,0.133,0.177,0.223,0.232
		l1.871,1.959l-0.584,2.809C1.538,157.176,1.631,157.426,1.825,157.579z"/>
	<path opacity="0.3" fill="#5B5E85" enable-background="new    " d="M13.043,146.762c0.1,0.078,0.234,0.094,0.35,0.039l1.32-0.635
		l1.271,0.728c0.109,0.063,0.242,0.059,0.352-0.013c0.104-0.07,0.16-0.195,0.143-0.319l-0.193-1.452l1.084-0.984
		c0.094-0.086,0.131-0.217,0.096-0.338c-0.033-0.121-0.135-0.213-0.26-0.234l-1.441-0.262l-0.6-1.337
		c-0.055-0.116-0.166-0.19-0.291-0.196c-0.064-0.002-0.125,0.015-0.176,0.043c-0.055,0.03-0.1,0.076-0.131,0.131l-0.693,1.291
		l-1.457,0.158c-0.047,0.004-0.088,0.02-0.133,0.043c-0.156,0.097-0.221,0.293-0.129,0.455c0.027,0.051,0.066,0.09,0.111,0.119
		L13.223,145l-0.299,1.435C12.897,146.557,12.946,146.686,13.043,146.762z"/>
	<path opacity="0.45" fill="#5B5E85" enable-background="new    " d="M22.159,138.819c0.063,0.05,0.15,0.06,0.225,0.024l0.846-0.407
		l0.814,0.466c0.068,0.041,0.154,0.038,0.225-0.008c0.066-0.045,0.104-0.125,0.092-0.205l-0.125-0.93l0.695-0.631
		c0.059-0.056,0.084-0.139,0.063-0.217s-0.088-0.137-0.168-0.15l-0.924-0.168l-0.385-0.856c-0.033-0.074-0.104-0.123-0.186-0.126
		c-0.041-0.001-0.08,0.009-0.113,0.027c-0.033,0.02-0.063,0.048-0.082,0.084l-0.445,0.826l-0.934,0.102
		c-0.031,0.003-0.059,0.013-0.084,0.029c-0.102,0.061-0.143,0.188-0.084,0.291c0.018,0.031,0.043,0.058,0.072,0.076l0.611,0.642
		l-0.189,0.919C22.065,138.688,22.096,138.77,22.159,138.819z"/>
	<path opacity="0.15" fill="#5B5E85" enable-background="new    " d="M1.825,120.845c0.193,0.152,0.461,0.181,0.686,0.073
		l2.584-1.243l2.488,1.425c0.213,0.123,0.473,0.115,0.684-0.023c0.207-0.139,0.314-0.383,0.281-0.626l-0.383-2.841l2.123-1.928
		c0.184-0.168,0.256-0.423,0.188-0.66c-0.066-0.237-0.264-0.416-0.508-0.459l-2.822-0.515l-1.174-2.614
		c-0.104-0.228-0.322-0.375-0.568-0.385c-0.123-0.004-0.24,0.027-0.344,0.084c-0.104,0.059-0.191,0.148-0.252,0.258l-1.361,2.523
		l-2.852,0.311c-0.09,0.01-0.172,0.037-0.258,0.086c-0.309,0.187-0.434,0.573-0.254,0.889c0.055,0.099,0.133,0.177,0.223,0.232
		l1.871,1.959l-0.584,2.809C1.538,120.441,1.631,120.691,1.825,120.845z"/>
	<path opacity="0.3" fill="#5B5E85" enable-background="new    " d="M13.043,110.027c0.1,0.078,0.234,0.094,0.35,0.039l1.32-0.635
		l1.271,0.728c0.109,0.063,0.242,0.059,0.352-0.013c0.104-0.07,0.16-0.195,0.143-0.319l-0.193-1.452l1.084-0.984
		c0.094-0.086,0.131-0.217,0.096-0.338c-0.033-0.121-0.135-0.213-0.26-0.234l-1.441-0.262l-0.6-1.337
		c-0.055-0.116-0.166-0.19-0.291-0.196c-0.064-0.002-0.125,0.015-0.176,0.043c-0.055,0.03-0.1,0.076-0.131,0.131l-0.693,1.291
		l-1.457,0.158c-0.047,0.004-0.088,0.02-0.133,0.043c-0.156,0.097-0.221,0.293-0.129,0.455c0.027,0.051,0.066,0.09,0.111,0.119
		l0.957,1.002l-0.299,1.435C12.897,109.822,12.946,109.951,13.043,110.027z"/>
	<path opacity="0.45" fill="#5B5E85" enable-background="new    " d="M22.159,102.085c0.063,0.05,0.15,0.06,0.225,0.024l0.846-0.407
		l0.814,0.466c0.068,0.041,0.154,0.038,0.225-0.008c0.066-0.045,0.104-0.125,0.092-0.205l-0.125-0.93l0.695-0.631
		c0.059-0.055,0.084-0.138,0.063-0.216c-0.021-0.078-0.088-0.137-0.168-0.151l-0.924-0.168l-0.385-0.856
		c-0.033-0.074-0.104-0.123-0.186-0.126c-0.041-0.001-0.08,0.009-0.113,0.027c-0.033,0.02-0.063,0.048-0.082,0.084l-0.445,0.826
		l-0.934,0.102c-0.031,0.003-0.059,0.013-0.084,0.029c-0.102,0.061-0.143,0.188-0.084,0.291c0.018,0.032,0.043,0.058,0.072,0.076
		l0.611,0.642l-0.189,0.919C22.065,101.953,22.096,102.035,22.159,102.085z"/>
	<path opacity="0.15" fill="#5B5E85" enable-background="new    " d="M1.825,139.212c0.193,0.152,0.461,0.181,0.686,0.073
		l2.584-1.243l2.488,1.425c0.213,0.123,0.473,0.115,0.684-0.023c0.207-0.139,0.314-0.383,0.281-0.626l-0.383-2.841l2.123-1.928
		c0.184-0.168,0.256-0.423,0.188-0.66c-0.066-0.237-0.264-0.416-0.508-0.459l-2.822-0.515l-1.174-2.614
		c-0.104-0.228-0.322-0.375-0.568-0.385c-0.123-0.004-0.24,0.027-0.344,0.084c-0.104,0.059-0.191,0.148-0.252,0.258l-1.361,2.523
		l-2.852,0.311c-0.09,0.01-0.172,0.037-0.258,0.086c-0.309,0.187-0.434,0.573-0.254,0.889c0.055,0.099,0.133,0.177,0.223,0.232
		l1.871,1.959l-0.584,2.809C1.538,138.809,1.631,139.059,1.825,139.212z"/>
	<path opacity="0.3" fill="#5B5E85" enable-background="new    " d="M13.043,128.395c0.1,0.078,0.234,0.094,0.35,0.039l1.32-0.635
		l1.271,0.728c0.109,0.063,0.242,0.059,0.352-0.013c0.104-0.07,0.16-0.195,0.143-0.319l-0.193-1.452l1.084-0.984
		c0.094-0.086,0.131-0.217,0.096-0.338c-0.033-0.121-0.135-0.213-0.26-0.234l-1.441-0.262l-0.6-1.337
		c-0.055-0.116-0.166-0.19-0.291-0.196c-0.064-0.002-0.125,0.015-0.176,0.043c-0.055,0.03-0.1,0.076-0.131,0.131l-0.693,1.291
		l-1.457,0.158c-0.047,0.004-0.088,0.02-0.133,0.043c-0.156,0.097-0.221,0.293-0.129,0.455c0.027,0.051,0.066,0.09,0.111,0.119
		l0.957,1.002l-0.299,1.435C12.897,128.189,12.946,128.318,13.043,128.395z"/>
	<path opacity="0.45" fill="#5B5E85" enable-background="new    " d="M22.159,120.452c0.063,0.05,0.15,0.06,0.225,0.024l0.846-0.407
		l0.814,0.466c0.068,0.041,0.154,0.038,0.225-0.008c0.066-0.045,0.104-0.125,0.092-0.205l-0.125-0.93l0.695-0.631
		c0.059-0.056,0.084-0.139,0.063-0.217s-0.088-0.137-0.168-0.15l-0.924-0.168l-0.385-0.856c-0.033-0.074-0.104-0.123-0.186-0.126
		c-0.041-0.001-0.08,0.009-0.113,0.027c-0.033,0.02-0.063,0.048-0.082,0.084l-0.445,0.826l-0.934,0.102
		c-0.031,0.003-0.059,0.013-0.084,0.029c-0.102,0.061-0.143,0.188-0.084,0.291c0.018,0.031,0.043,0.058,0.072,0.076l0.611,0.642
		l-0.189,0.919C22.065,120.32,22.096,120.402,22.159,120.452z"/>
	<path opacity="0.3" fill="#5B5E85" enable-background="new    " d="M13.043,220.23c0.1,0.078,0.234,0.094,0.35,0.039l1.32-0.635
		l1.271,0.728c0.109,0.063,0.242,0.059,0.352-0.013c0.104-0.07,0.16-0.195,0.143-0.319l-0.193-1.452l1.084-0.984
		c0.094-0.086,0.131-0.217,0.096-0.338c-0.033-0.121-0.135-0.213-0.26-0.234l-1.441-0.262l-0.6-1.337
		c-0.055-0.116-0.166-0.19-0.291-0.196c-0.064-0.002-0.125,0.015-0.176,0.043c-0.055,0.03-0.1,0.076-0.131,0.131l-0.693,1.291
		l-1.457,0.158c-0.047,0.004-0.088,0.02-0.133,0.043c-0.156,0.097-0.221,0.293-0.129,0.455c0.027,0.051,0.066,0.09,0.111,0.119
		l0.957,1.002l-0.299,1.435C12.897,220.025,12.946,220.154,13.043,220.23z"/>
	<path opacity="0.45" fill="#5B5E85" enable-background="new    " d="M22.159,212.288c0.063,0.05,0.15,0.06,0.225,0.024l0.846-0.407
		l0.814,0.466c0.068,0.041,0.154,0.038,0.225-0.008c0.066-0.045,0.104-0.125,0.092-0.205l-0.125-0.93l0.695-0.631
		c0.059-0.056,0.084-0.139,0.063-0.217s-0.088-0.137-0.168-0.15l-0.924-0.168l-0.385-0.856c-0.033-0.074-0.104-0.123-0.186-0.126
		c-0.041-0.001-0.08,0.009-0.113,0.027c-0.033,0.02-0.063,0.048-0.082,0.084l-0.445,0.826l-0.934,0.102
		c-0.031,0.003-0.059,0.013-0.084,0.029c-0.102,0.061-0.143,0.188-0.084,0.291c0.018,0.031,0.043,0.058,0.072,0.076l0.611,0.642
		l-0.189,0.919C22.065,212.156,22.096,212.238,22.159,212.288z"/>
</g>
</svg>
